{"title":"The.Woman.in.the.Fifth.2011.BRRip.AC3.HORiZON-ArtSubs","uid":7145369,"size":1646903296,"categoryP":"video","categoryS":"movies","magnet":"?xt=urn:btih:0b492b6489de9a4c1b25c37c782d3ad91682fe44&amp;dn=The.Woman.in.the.Fifth.2011.BRRip.AC3.HORiZON-ArtSubs&amp;tr=udp%3A%2F%2Ftracker.openbittorrent.com%3A80&amp;tr=udp%3A%2F%2Fopen.demonii.com%3A1337&amp;tr=udp%3A%2F%2Ftracker.coppersurfer.tk%3A6969&amp;tr=udp%3A%2F%2Fexodus.desync.com%3A6969","seeders":1,"leechers":0,"uploader":"lletaif","files":1,"time":1333128231,"description":"Title: The Woman in the Fifth\n\nCountry: UK/2011\n\nLanguage: English/French\n\nDirector: Pawel Pawlikowski\n\nWriters: Douglas Kennedy (book), Pawel Pawlikowski (screenplay)\n\nStars: Ethan Hawke, Kristin Scott Thomas and Joanna Kulig\n\nPlot: A college lecturer flees to Paris after a scandal costs him his job. In the City of Lights, he meets a widow who might be involved in a series of murders.\n\nImdb: http://www.imdb.com/title/tt1605777/\n\nRip Specs:\n\nGeneral\nComplete name                    : The.Woman.in.the.Fifth.2011.BRRip.AC3.HORiZON-ArtSubs\nFormat                           : AVI\nFormat/Info                      : Audio Video Interleave\nFile size                        : 1.53 GiB\nDuration                         : 1h 20mn\nOverall bit rate                 : 2 731 Kbps\nWriting application              : FairUse Wizard - http://fairusewizard.com\nWriting library                  : The best and REALLY easy backup tool\n\nVideo\nID                               : 0\nFormat                           : MPEG-4 Visual\nFormat profile                   : Advanced Simple@L5\nFormat settings, BVOP            : 1\nFormat settings, QPel            : No\nFormat settings, GMC             : No warppoints\nFormat settings, Matrix          : Default (MPEG)\nMuxing mode                      : Packed bitstream\nCodec ID                         : XVID\nCodec ID/Hint                    : XviD\nDuration                         : 1h 20mn\nBit rate                         : 2 465 Kbps\nWidth                            : 704 pixels\nHeight                           : 384 pixels\nDisplay aspect ratio             : 16:9\nFrame rate                       : 25.000 fps\nColor space                      : YUV\nChroma subsampling               : 4:2:0\nBit depth                        : 8 bits\nScan type                        : Progressive\nCompression mode                 : Lossy\nBits/(Pixel*Frame)               : 0.365\nStream size                      : 1.38 GiB (90%)\nWriting library                  : XviD 1.2.0.dev47 (UTC 2006-11-01)\n\nAudio\nID                               : 1\nFormat                           : AC-3\nFormat/Info                      : Audio Coding 3\nMode extension                   : CM (complete main)\nCodec ID                         : 2000\nDuration                         : 1h 20mn\nBit rate mode                    : Constant\nBit rate                         : 256 Kbps\nChannel(s)                       : 6 channels\nChannel positions                : Front: L C R, Side: L R, LFE\nSampling rate                    : 48.0 KHz\nBit depth                        : 16 bits\nCompression mode                 : Lossy\nStream size                      : 147 MiB (9%)\nAlignment                        : Split accross interleaves\nInterleave, duration             : 40 ms (1.00 video frame)\nInterleave, preload duration     : 500 ms\n\n\n","torrent":{"xt":"urn:btih:0b492b6489de9a4c1b25c37c782d3ad91682fe44","amp;dn":"The.Woman.in.the.Fifth.2011.BRRip.AC3.HORiZON-ArtSubs","amp;tr":["udp%3A%2F%2Ftracker.openbittorrent.com%3A80","udp%3A%2F%2Fopen.demonii.com%3A1337","udp%3A%2F%2Ftracker.coppersurfer.tk%3A6969","udp%3A%2F%2Fexodus.desync.com%3A6969"],"infoHash":"0b492b6489de9a4c1b25c37c782d3ad91682fe44","infoHashBuffer":{"type":"Buffer","data":[11,73,43,100,137,222,154,76,27,37,195,124,120,45,58,217,22,130,254,68]},"announce":[],"urlList":[]}}